<svg class="content__img" width="265" height="118" viewBox="0 0 265 118" fill="none" xmlns="http://www.w3.org/2000/svg">
      <g filter="url(#filter0_d_328:75)">
        <path fill-rule="evenodd" clip-rule="evenodd" d="M57.1251 80.5093C46.3466 80.5093 36.7967 76.9918 29.2573 70.2732C18.8045 60.949 12.0563 45.3993 12.0098 28.6399C12.0005 24.4152 15.2862 20.786 19.5119 20.6278C23.9704 20.4696 27.6284 24.015 27.6284 28.4352C27.6284 38.0572 31.1468 51.0199 39.6542 58.6039C43.7776 62.2703 48.3478 64.3269 54.2583 64.7549C55.4683 64.8387 57.4788 64.8666 57.4788 63.6569V28.6585C57.4788 24.4524 60.7087 20.8325 64.9159 20.6278C69.4023 20.4324 73.1068 23.9964 73.1068 28.4352V72.0691C73.1068 75.6425 70.2493 78.155 66.7402 79.4485C64.981 80.0999 62.1235 80.5093 57.1251 80.5093Z" fill="white"></path>
        <path fill-rule="evenodd" clip-rule="evenodd" d="M108.01 34.3911C99.0469 34.3911 91.7402 41.696 91.7402 50.6573C91.7402 59.6279 99.0469 66.9235 108.01 66.9235C116.983 66.9235 124.281 59.6279 124.281 50.6573C124.281 41.696 116.983 34.3911 108.01 34.3911ZM108.01 80.5934C91.4982 80.5934 78.0762 67.1747 78.0762 50.6573C78.0762 34.1491 91.4982 20.7305 108.01 20.7305C124.532 20.7305 137.954 34.1491 137.954 50.6573C137.954 67.1747 124.532 80.5934 108.01 80.5934Z" fill="white"></path>
        <path fill-rule="evenodd" clip-rule="evenodd" d="M171.518 80.5934C155.015 80.5934 141.584 67.1747 141.584 50.6573C141.584 34.1491 155.015 20.7305 171.518 20.7305C179.514 20.7305 187.044 23.8385 192.694 29.487C195.365 32.1577 195.365 36.4942 192.694 39.1649C190.032 41.8356 185.694 41.8356 183.032 39.1649C179.951 36.094 175.865 34.3911 171.518 34.3911C162.555 34.3911 155.257 41.696 155.257 50.6573C155.257 59.6279 162.555 66.9235 171.518 66.9235C175.865 66.9235 179.951 65.2299 183.032 62.159C185.694 59.4883 190.032 59.4883 192.694 62.159C195.365 64.8204 195.365 69.1661 192.694 71.8275C187.044 77.4853 179.514 80.5934 171.518 80.5934Z" fill="white"></path>
        <path fill-rule="evenodd" clip-rule="evenodd" d="M208.397 48.1814C209.607 40.4019 216.346 34.4184 224.471 34.4184C227.543 34.4184 230.494 35.3025 233.007 36.8658C233.947 37.4521 233.863 38.8386 232.858 39.3039L210.342 49.661C209.337 50.1263 208.22 49.2795 208.397 48.1814ZM245.684 54.8908C242.864 54.4348 240.137 55.933 238.768 58.4362C235.92 63.6846 230.438 66.9508 224.471 66.9508C221.325 66.9508 218.403 66.0668 215.917 64.5128C214.977 63.9265 215.07 62.5307 216.066 62.0747L248.309 47.2416L248.318 47.2323C251.753 45.855 253.344 41.9467 251.846 38.5687C248.774 31.6361 243.236 26.2667 236.553 23.3169C232.811 21.6605 228.706 20.7578 224.471 20.7578C219.752 20.7578 215.294 21.8466 211.329 23.7914C201.388 28.6676 194.537 38.8944 194.537 50.6846C194.537 55.0769 195.487 59.2458 197.199 63.0052C197.227 63.0704 197.246 63.1448 197.274 63.2007C197.302 63.2658 197.339 63.3309 197.367 63.3961C202.16 73.5671 212.501 80.6208 224.471 80.6208C235.455 80.6208 245.544 74.6279 250.785 64.9594C252.972 60.9394 250.71 55.7097 245.684 54.8908Z" fill="white"></path>
        <path fill-rule="evenodd" clip-rule="evenodd" d="M237.119 17.1567C235.397 14.8396 228.119 8.02792 224.488 8C220.877 8.02792 213.589 14.8396 211.867 17.1567C210.303 19.2691 212.276 19.5203 213.496 18.9062C216.893 17.2032 220.709 15.8167 224.488 15.8167C228.286 15.8167 232.093 17.2032 235.49 18.9062C236.719 19.5203 238.702 19.2691 237.119 17.1567Z" fill="white"></path>
        <path fill-rule="evenodd" clip-rule="evenodd" d="M145.315 101.289H146.999C147.865 101.289 148.628 100.749 148.917 99.9398L152.333 90.1969C152.417 89.9549 152.64 89.7967 152.901 89.7967H155.209C156.587 89.7967 157.825 88.922 158.281 87.6192L158.383 87.3121C158.411 87.2284 158.402 87.1353 158.346 87.0609C158.299 86.9864 158.215 86.9492 158.122 86.9492H146.264C145.855 86.9492 145.482 87.2098 145.343 87.6006L144.7 89.4245C144.682 89.5083 144.691 89.6013 144.738 89.6758C144.793 89.7502 144.868 89.7967 144.961 89.7967H148.358C148.554 89.7967 148.74 89.8898 148.852 90.048C148.963 90.2062 148.991 90.4016 148.926 90.597L145.222 101.159C145.212 101.187 145.212 101.224 145.24 101.252C145.259 101.28 145.287 101.289 145.315 101.289Z" fill="white"></path>
        <path fill-rule="evenodd" clip-rule="evenodd" d="M240.853 101.225H242.519C243.441 101.225 244.4 100.592 244.614 99.8567L248.607 88.9319C248.728 88.5318 248.635 88.0944 248.346 87.7036C247.974 87.2011 247.35 86.9033 246.689 86.9033H232.746C231.145 86.9033 229.795 87.7874 229.395 89.0994L226.538 97.3349L225.16 101.085C225.16 101.094 225.169 101.122 225.179 101.141C225.216 101.187 225.281 101.225 225.356 101.225H227.022C227.906 101.225 228.809 100.629 229.107 99.8474L232.504 90.7186C232.597 90.4115 232.904 90.1975 233.277 90.1975H236.06C236.209 90.1975 236.358 90.2719 236.441 90.3929C236.525 90.5046 236.553 90.6349 236.506 90.7558L233.668 98.0514C233.668 98.0514 233.677 98.0793 233.695 98.1073C233.733 98.1538 233.798 98.1817 233.872 98.1817H234.589C236.153 98.1817 237.316 97.4186 237.94 95.9577L240.174 90.7093C240.258 90.4115 240.574 90.1975 240.937 90.1975L244.027 90.2068C244.176 90.2068 244.316 90.2719 244.409 90.3929C244.493 90.5046 244.511 90.6349 244.474 90.7558L240.658 101.085C240.658 101.094 240.667 101.113 240.686 101.141C240.723 101.187 240.788 101.225 240.853 101.225Z" fill="white"></path>
        <path fill-rule="evenodd" clip-rule="evenodd" d="M174.57 86.9482C173.937 86.9482 173.37 87.3484 173.155 87.9439L169.423 98.5988C169.209 99.2223 169.311 99.8923 169.684 100.432C170.065 100.981 170.67 101.288 171.34 101.288H177.502C178.359 101.288 179.131 100.748 179.41 99.9296L179.885 98.5802C179.904 98.543 179.894 98.5151 179.876 98.4872C179.857 98.4593 179.829 98.4407 179.792 98.4407H173.984C173.733 98.4407 173.5 98.3197 173.36 98.115C173.211 97.9102 173.174 97.6404 173.258 97.3984L176.888 87.0785C176.897 87.0506 176.897 87.0134 176.879 86.9855C176.86 86.9575 176.823 86.9482 176.795 86.9482H174.57Z" fill="white"></path>
        <path fill-rule="evenodd" clip-rule="evenodd" d="M222.648 90.3541L219.985 97.9288C219.883 98.2359 219.585 98.4407 219.259 98.4407H212.148C212.009 98.4407 211.878 98.3755 211.804 98.2638C211.72 98.1522 211.701 98.0126 211.748 97.8823L214.401 90.3076C214.512 90.0005 214.801 89.7958 215.136 89.7958H222.247C222.387 89.7958 222.508 89.8609 222.592 89.9726C222.666 90.0842 222.694 90.2238 222.648 90.3541ZM226.585 88.9396C226.743 88.4744 226.678 87.9812 226.389 87.581C226.11 87.1716 225.663 86.9482 225.17 86.9482H214.457C213.07 86.9482 211.832 87.8137 211.376 89.1164L207.811 99.2968C207.653 99.762 207.727 100.255 207.997 100.655C208.285 101.056 208.732 101.288 209.226 101.288H219.939C221.316 101.288 222.564 100.413 223.02 99.1107L226.585 88.9396Z" fill="white"></path>
        <path fill-rule="evenodd" clip-rule="evenodd" d="M171.241 87.6182L171.427 87.0785C171.436 87.0506 171.436 87.0134 171.417 86.9855C171.399 86.9575 171.371 86.9482 171.334 86.9482H162.789C161.402 86.9482 160.174 87.8137 159.717 89.1164L156.153 99.2968C155.994 99.762 156.069 100.255 156.339 100.655C156.627 101.056 157.074 101.288 157.567 101.288H164.353C165.135 101.288 166.01 100.665 166.27 99.9389L166.745 98.5802C166.754 98.543 166.754 98.5151 166.726 98.4872C166.708 98.4593 166.68 98.4407 166.652 98.4407H160.49C160.35 98.4407 160.22 98.3755 160.146 98.2638C160.062 98.1522 160.043 98.0126 160.09 97.8823L160.713 96.0863C160.816 95.7792 161.114 95.5745 161.439 95.5745H163.673C165.06 95.5745 166.289 94.6998 166.745 93.397L166.95 92.8108C166.968 92.7735 166.959 92.7456 166.94 92.7177C166.922 92.6898 166.894 92.6712 166.857 92.6712H162.51C162.37 92.6712 162.24 92.606 162.165 92.4944C162.082 92.3827 162.063 92.2431 162.11 92.1128L162.733 90.3076C162.845 90.0005 163.133 89.7958 163.469 89.7958H168.169C169.547 89.7958 170.785 88.921 171.241 87.6182Z" fill="white"></path>
        <path fill-rule="evenodd" clip-rule="evenodd" d="M209.784 87.6182L209.97 87.0785C209.979 87.0506 209.979 87.0134 209.96 86.9855C209.942 86.9575 209.914 86.9482 209.877 86.9482H201.332C199.945 86.9482 198.717 87.8137 198.26 89.1164L194.696 99.2968C194.537 99.762 194.612 100.255 194.882 100.655C195.17 101.056 195.617 101.288 196.11 101.288H203.519C204.292 101.288 205.167 100.665 205.428 99.9389L205.902 98.5802C205.912 98.543 205.912 98.5151 205.893 98.4872C205.874 98.4593 205.837 98.4407 205.809 98.4407H199.033C198.893 98.4407 198.763 98.3755 198.689 98.2638C198.614 98.1615 198.586 98.0219 198.623 97.8916L198.633 97.8823L201.276 90.3076C201.388 90.0005 201.676 89.7958 202.012 89.7958H206.712C208.09 89.7958 209.328 88.921 209.784 87.6182Z" fill="white"></path>
        <path fill-rule="evenodd" clip-rule="evenodd" d="M193.642 89.7958C195.019 89.7958 196.257 88.921 196.713 87.6182L196.899 87.0785C196.909 87.0506 196.909 87.0134 196.89 86.9855C196.872 86.9575 196.844 86.9482 196.806 86.9482H188.262C186.875 86.9482 185.646 87.8137 185.19 89.1164L181.625 99.2968C181.467 99.762 181.541 100.255 181.811 100.655C182.1 101.056 182.547 101.288 183.04 101.288H189.825C190.607 101.288 191.482 100.665 191.743 99.9389L192.218 98.5802C192.227 98.543 192.227 98.5151 192.208 98.4872C192.18 98.4593 192.152 98.4407 192.124 98.4407H185.963C185.823 98.4407 185.693 98.3755 185.618 98.2638C185.535 98.1522 185.516 98.0033 185.562 97.8823L186.186 96.0863C186.288 95.7792 186.586 95.5745 186.912 95.5745H189.146C190.533 95.5745 191.761 94.6998 192.218 93.397L192.422 92.8108C192.441 92.7735 192.432 92.7456 192.413 92.7177C192.394 92.6898 192.367 92.6712 192.329 92.6712H187.982C187.843 92.6712 187.713 92.606 187.638 92.4944C187.554 92.3827 187.536 92.2431 187.582 92.1128L188.206 90.3076C188.318 90.0005 188.606 89.7958 188.941 89.7958H193.642Z" fill="white"></path>
      </g>
      <defs>
        <filter id="filter0_d_328:75" x="0.00976562" y="0" width="264.4" height="117.289" filterUnits="userSpaceOnUse" color-interpolation-filters="sRGB">
          <feFlood flood-opacity="0" result="BackgroundImageFix"></feFlood>
          <feColorMatrix in="SourceAlpha" type="matrix" values="0 0 0 0 0 0 0 0 0 0 0 0 0 0 0 0 0 0 127 0" result="hardAlpha"></feColorMatrix>
          <feOffset dy="4"></feOffset>
          <feGaussianBlur stdDeviation="6"></feGaussianBlur>
          <feComposite in2="hardAlpha" operator="out"></feComposite>
          <feColorMatrix type="matrix" values="0 0 0 0 0 0 0 0 0 0 0 0 0 0 0 0 0 0 0.25 0"></feColorMatrix>
          <feBlend mode="normal" in2="BackgroundImageFix" result="effect1_dropShadow_328:75"></feBlend>
          <feBlend mode="normal" in="SourceGraphic" in2="effect1_dropShadow_328:75" result="shape"></feBlend>
        </filter>
      </defs>
    </svg>